# xmcd
#
# Track frame offsets:
#	150
#	16487
#	31727
#	45145
#	57772
#	70097
#	84640
#	99917
#	112600
#	126640
#
# Disc length: 1911 seconds
#
# Revision: 1
# Processed by: cddbd v1.5.1PL0 Copyright (c) Steve Scherf et al.
# Submitted via: audiograbber 1.83.01
#
DISCID=6f07750a
DTITLE=Flashlight Country Band - Rock My World
DYEAR=2005
DGENRE=Country
TTITLE0=The Bug
TTITLE1=Rock My World (Little Country Girl)
TTITLE2=Big Train
TTITLE3=She Likes It Too
TTITLE4=The Distance Between You And Me
TTITLE5=Take A Little Trip
TTITLE6=Can I Trust You With My Heart
TTITLE7=Don't Rock The Jukebox
TTITLE8=Turn It On, Turn It Up, Turn Me Loose
TTITLE9=High On A Mountain Top
EXTD=Country Music from GERMANY
EXTT0=
EXTT1=
EXTT2=
EXTT3=
EXTT4=
EXTT5=
EXTT6=
EXTT7=
EXTT8=
EXTT9=
PLAYORDER=
